<?xml version="1.0" encoding="UTF-8"?>
<svg id="Camada_1" xmlns="http://www.w3.org/2000/svg" version="1.1" viewBox="0 0 64 64">
  <!-- Generator: Adobe Illustrator 30.4.0, SVG Export Plug-In . SVG Version: 2.1.4 Build 226)  -->
  <defs>
    <style>
      .st0 {
        fill: #cfc0a5;
      }

      .st1 {
        fill: #493400;
        fill-rule: evenodd;
      }
    </style>
  </defs>
  <circle class="st0" cx="32.2" cy="32" r="30.8"/>
  <g>
    <path class="st1" d="M32.2,57.8c-14.1,0-25.5-11.4-25.5-25.5S18.1,6.9,32.2,6.9s25.5,11.4,25.5,25.5-11.4,25.5-25.5,25.5M32.2,6.2c-14.4,0-26.1,11.7-26.1,26.1s11.7,26.1,26.1,26.1,26.1-11.7,26.1-26.1S46.6,6.2,32.2,6.2"/>
    <path class="st1" d="M52.1,26.5l-1.4.4c.2.5.3,1.1.4,1.7h0c0,.1,2.2-.3,2.2-.3h0c0,0,0,.1,0,.1l-2.2.4c0,.5.1,1,.2,1.5.3,0,.6,0,1-.1h0s.4,0,.4,0h0c.7,0,1.4-.2,2-.4.8-.3,1.6-1.2,1.4-2.2-.2-.9-1.1-1.6-2-1.6h0c-.2,0-.3,0-.4,0l-1.7.4h0Z"/>
    <path class="st1" d="M25.9,10.9l.4,1.6h0s0,.4,0,.4l.3,1.1c.5-.2,1.1-.3,1.7-.4l-.4-2.2h0c0,0,0,0,0,0l.4,2.2c.5-.1,1-.2,1.7-.2l-.2-1.5h0s-.2-1.7-.2-1.7c0-.2,0-.3-.1-.4-.4-.9-1.4-1.5-2.3-1.3-1,.2-1.5,1.2-1.5,2.1,0,.1,0,.3,0,.4"/>
    <path class="st1" d="M18,14.6l.2.3.9,1.3h0s.7,1,.7,1l.2.2c.5-.4.9-.7,1.3-1l-1.3-1.9h0c0,0,0,0,0,0l1.3,1.9h0c.5-.4,1-.7,1.5-1l-.8-1.3h0s-.9-1.5-.9-1.5l-.3-.3c-.7-.7-1.8-.8-2.6-.3-.8.6-.9,1.7-.5,2.5h0Z"/>
    <path class="st1" d="M42.9,16.4h0s1.2-1.9,1.2-1.9h0s0,0,0,0l-1.2,1.9c.4.3.8.6,1.3,1l.9-1.2h0c0,0,.9-1.3.9-1.3l.2-.3h0c.4-.8.3-2-.5-2.6-.8-.5-1.9-.4-2.6.3l-.3.3-1.6,2.8c.5.3,1,.6,1.6.9"/>
    <path class="st1" d="M53.7,32.5h-2.2c0,.6,0,1.2,0,1.8l1.5.2c1.2,0,2.1-.9,2.1-2.1s-.9-2-2.1-2.1c-.2,0-.3,0-.5,0h-1c0,.7,0,1.3,0,2h2.3c0,0,0,.1,0,.1Z"/>
    <path class="st1" d="M50.5,22.5h-.2c0,.1-1.1.8-1.1.8.3.5.5,1.1.8,1.7l2.1-.9h0s0,.1,0,.1l-2.1.9c.2.6.4,1.1.6,1.7l1.5-.4c1.1-.5,1.6-1.7,1.1-2.8-.4-1.1-1.7-1.6-2.8-1.1"/>
    <path class="st1" d="M10.6,32.3h2.3c0-.6,0-1.2,0-1.8h-.3s-1.3-.2-1.3-.2c-1.1,0-2,1-2,2.1s.9,2.1,2.1,2.1l1.5-.2c0-.6,0-1.2,0-1.8h-2.3c0,0,0-.1,0-.1Z"/>
    <path class="st1" d="M30.3,13.2c.6,0,1.2,0,1.8,0v-2.2h0c0,0,0,0,0,0v2.2c.6,0,1.2,0,1.8,0l.2-1.5c0-1.2-.9-2.1-2.1-2.1s-2.1.9-2.1,2.1v.9c.1,0,.2.6.2.6Z"/>
    <path class="st1" d="M47.1,44.6c-.4.5-.8.9-1.2,1.4l1.6,1.6h0c0,0,0,.1,0,.1h0s-1.6-1.6-1.6-1.6c-.4.4-.9.8-1.3,1.2l.9,1.2c.8.8,2.2.8,3,0,.8-.8.8-2.1,0-3l-1.2-.9Z"/>
    <path class="st1" d="M32.3,51.6v2.3h0c0,0,0,0,0,0v-2.3c-.6,0-1.2,0-1.8,0l-.2,1.5c0,1.2,1,2.1,2.1,2.1s2.1-.9,2.1-2.1l-.2-1.5c-.6,0-1.2,0-1.8,0"/>
    <path class="st1" d="M52.1,38.3l-1.5-.4c-.2.6-.4,1.1-.6,1.7l2.1.9h0c0,0,0,.1,0,.1h0s-2.1-.9-2.1-.9c-.2.6-.5,1.1-.8,1.7l1.3.8c1.1.4,2.3-.1,2.7-1.2.2-.5.2-1.1,0-1.6-.2-.5-.6-.9-1.1-1.1"/>
    <path class="st1" d="M13.9,42.2l.4-.2.9-.5c-.3-.5-.5-1.1-.8-1.7l-2.1.9h0s0,0,0,0h0c0,0,2.1-1,2.1-1-.2-.6-.4-1.1-.6-1.7l-1.5.4c-.5.2-.9.6-1.1,1.1-.2.5-.2,1.1,0,1.6.4,1.1,1.7,1.6,2.8,1.1"/>
    <path class="st1" d="M12.3,26.4l1.4.4c.2-.5.4-1.1.6-1.7l-2.1-.9h0c0,0,0-.1,0-.1l2.1.9c.2-.6.5-1.1.8-1.7l-1.3-.8c-.2,0-.5-.1-.7-.1-.8,0-1.6.5-2,1.3-.4,1.1,0,2.3,1.2,2.8"/>
    <path class="st1" d="M20,47.3c-.5-.4-.9-.8-1.3-1.2l-1.6,1.6h0s0,0,0,0h0c0,0,1.6-1.7,1.6-1.7-.4-.4-.8-.9-1.2-1.3l-1.2.9c-.8.8-.8,2.2,0,3,.8.8,2.2.8,3,0l.9-1.2Z"/>
    <path class="st1" d="M30.2,51.5c-.6,0-1.1-.1-1.7-.2l-.4,2.2h0c0,0,0,0,0,0h0c0,0,.4-2.3.4-2.3-.6-.1-1.2-.3-1.7-.4l-.4,1.4h0s-.4,1.6-.4,1.6v.4c0,.9.4,1.9,1.4,2.1.9.2,1.9-.4,2.3-1.3,0-.1.1-.3.1-.4l.2-1.7h0s.2-1.5.2-1.5Z"/>
    <path class="st1" d="M38.5,53.9l-.8-3c-.5.2-1.1.3-1.7.4h0s.4,2.2.4,2.2h0c0,0,0,0,0,0h0c0,0-.4-2.3-.4-2.3-.5,0-1,.2-1.6.2l.2,1.5h0c0,0,.2,1.7.2,1.7,0,.2,0,.3.1.4.4.9,1.4,1.5,2.3,1.3,1-.2,1.5-1.2,1.5-2.1,0-.1,0-.3,0-.4"/>
    <path class="st1" d="M22.3,50.6l.8-1.3c-.5-.3-1-.6-1.6-.9h0s0,0,0,0l-1.3,1.9h0s0,0,0,0h0c0,0,1.3-2,1.3-2h0c-.5-.3-.9-.6-1.3-1l-1.9,2.5-.2.3h0c-.4.8-.3,2,.5,2.6.8.5,1.9.4,2.6-.3l.3-.3.9-1.5h0Z"/>
    <path class="st1" d="M41.3,49.4c-.5.3-1,.5-1.5.7l.9,2.1h0c0,0,0,0,0,0h0s-.9-2.1-.9-2.1h0c-.6.3-1.2.5-1.8.7l.4,1.4c.5,1.1,1.7,1.6,2.8,1.2,1.1-.4,1.6-1.7,1.1-2.7l-.8-1.3Z"/>
    <path class="st1" d="M26.6,50.8c-.6-.2-1.2-.4-1.8-.6h-.1s-.9,2.1-.9,2.1h0s0,0,0,0h0c0,0,.9-2.2.9-2.2-.5-.2-1-.4-1.5-.7l-.8,1.3c-.4,1.1,0,2.3,1.1,2.8,1.1.4,2.3,0,2.8-1.1l.4-1.4Z"/>
    <path class="st1" d="M16.1,45.4l1.2-.9c-.4-.5-.7-.9-1.1-1.4l-1.9,1.2h0s0,0,0,0h0c0,0,1.9-1.3,1.9-1.3-.3-.5-.6-.9-.8-1.4l-1.3.8h0s-1.4.8-1.4.8l-.3.3c-.7.6-1,1.7-.5,2.5.5.8,1.6,1.1,2.5.7l.4-.2,1.4-1h0Z"/>
    <path class="st1" d="M46.4,50.2l-.2-.3-1.9-2.5c-.4.4-.8.7-1.3,1l1.3,1.9h0c0,0,0,.1,0,.1h0s-1.3-1.9-1.3-1.9c-.5.4-1,.6-1.5.9l.8,1.3h0s.9,1.5.9,1.5l.3.3c.7.7,1.8.8,2.6.3.8-.6.9-1.7.5-2.5h0Z"/>
    <path class="st1" d="M54.9,34.9h0s-.4-.1-.4-.1l-3.1-.4c0,.5,0,1-.2,1.5l2.2.4h0c0,0,0,.1,0,.1h0s-2.2-.4-2.2-.4h0c-.1.7-.3,1.3-.4,1.9l1.4.4h0s1.7.4,1.7.4c.1,0,.3,0,.4,0h0c1,0,1.9-.7,2-1.6.2-1-.6-1.9-1.4-2.2"/>
    <path class="st1" d="M52.2,43.4h0s-.3-.3-.3-.3l-1.3-.8h0s-1.3-.8-1.3-.8c-.3.5-.5,1-.8,1.4l1.9,1.2h0c0,0,0,.1,0,.1h0s-1.9-1.2-1.9-1.2c-.3.5-.6.9-1.1,1.4l1.2.9h0s1.4,1.1,1.4,1.1l.4.2c.9.4,2,0,2.5-.7.6-.8.2-2-.5-2.5"/>
    <path class="st1" d="M12.3,38.2l1.4-.4c-.2-.6-.3-1.1-.4-1.7h0s-2.2.4-2.2.4h0s0,0,0,0h0c0,0,2.2-.5,2.2-.5h0c-.1-.6-.2-1.1-.2-1.7l-1.5.2h0l-1.6.2h-.4c0,.1,0,.1,0,.1-.8.3-1.6,1.2-1.4,2.2.2.9,1.1,1.6,2.1,1.6.2,0,.3,0,.4,0l1.6-.4h0Z"/>
    <path class="st1" d="M44.4,17.5c.5.4.9.8,1.3,1.2l1.6-1.6h0c0,0-1.6,1.7-1.6,1.7.5.5.9.9,1.2,1.3l1.2-.9c.8-.8.8-2.2,0-3-.4-.4-.9-.6-1.5-.6-.5,0-1,.2-1.4.5l-1,1.3Z"/>
    <path class="st1" d="M9.5,29.8h.4c0,.1,1.5.3,1.5.3h0s1.2.2,1.2.2h.3c0-.5,0-.9.2-1.5l-2.2-.4h0c0,0,0-.1,0-.1l2.2.4h0c.1-.8.3-1.3.4-1.9l-3.1-.8c-.1,0-.3,0-.4,0-1,0-1.9.7-2.1,1.6-.2,1,.6,1.9,1.4,2.2"/>
    <path class="st1" d="M49.7,18.3l-1.4,1h0s-1.2.9-1.2.9c.4.4.7.9,1.1,1.4h0s1.9-1.2,1.9-1.2h0s0,.1,0,.1l-1.9,1.2c.3.5.6.9.8,1.4l1.3-.8h0s1.4-.8,1.4-.8l.3-.3c.7-.6,1-1.7.5-2.6-.5-.8-1.6-1.1-2.5-.7l-.4.2Z"/>
    <path class="st1" d="M35.8,13.4l.4-2.2h0c0,0,0,0,0,0l-.4,2.2h0c.6.1,1.2.3,1.7.4l.4-1.4h0c0,0,.4-1.6.4-1.6v-.4s0,0,0,0c0-.9-.5-1.9-1.5-2.1-.9-.2-1.9.4-2.3,1.3,0,.1-.1.3-.1.4l-.4,3.2c.6,0,1.1.1,1.6.2"/>
    <path class="st1" d="M37.8,13.9c.6.2,1.2.4,1.8.6h0s.9-2,.9-2h0s0,0,0,0l-.9,2.1c.5.2,1,.5,1.5.7l.8-1.3c.4-1.1,0-2.3-1.1-2.8-.5-.2-1.1-.2-1.6,0-.5.2-.9.6-1.2,1.1l-.4,1.5Z"/>
    <path class="st1" d="M12.2,21.4l.3.3,1.3.8h0s1.3.8,1.3.8c.3-.5.5-.9.8-1.4l-1.9-1.3h0c0,0,0-.1,0-.1l1.9,1.3h0c.4-.6.7-1,1.1-1.5l-2.6-1.9-.4-.2c-.9-.4-2,0-2.5.7-.5.8-.2,2,.5,2.6"/>
    <path class="st1" d="M17.3,20.1c.3-.4.7-.8,1.2-1.3l-1.6-1.6h0c0,0,0,0,0,0l1.6,1.6c.4-.4.9-.9,1.4-1.3l-.2-.2-.8-1c-.4-.4-.9-.6-1.5-.6h0c-.6,0-1.1.2-1.5.6-.8.8-.8,2.2,0,3l1.2.9Z"/>
    <path class="st1" d="M23.1,15.4c.5-.2.9-.5,1.5-.7l-.9-2.1h0c0,0,0,0,0,0l.9,2.1h.1c.6-.3,1.2-.5,1.8-.7l-.4-1.4c-.2-.5-.6-.9-1.2-1.1-.5-.2-1.1-.2-1.6,0-1.1.4-1.6,1.7-1.2,2.7l.8,1.3Z"/>
    <path class="st1" d="M33.2,37.7v-1.3c-.3,0-.6,0-.9,0s-.7,0-1,0v1.3h.9v-1.2h0s0,0,0,0v1.2h.9Z"/>
    <path class="st1" d="M38.9,25.4l-2.3.9v1.2c0,0,4.2-1.7,4.2-1.7h.2c0,0-.4-1.1-.4-1.1l-.7.3h0c-.2-.3-.5-.4-.7-.2-.2.1-.4.3-.3.6h0Z"/>
    <polygon class="st1" points="38.7 27.3 37.3 27.9 37.4 28.3 38.9 27.7 38.7 27.3"/>
    <polygon class="st1" points="37.2 27.9 37.2 27.9 37.1 27.8 38.8 27.2 39 27.7 39.1 27.7 40.1 27.2 39.9 26.8 39.9 26.7 40.7 26.4 41 26.3 40.8 25.9 36.5 27.6 36.5 28.7 37.3 28.3 37.2 27.9"/>
    <polygon class="st1" points="40.7 26.5 40 26.8 40.2 27.2 41.2 26.8 41 26.4 40.7 26.5"/>
    <path class="st1" d="M28,27.6v-1.2c0,0-2.5-1-2.5-1h0c.1-.3,0-.6-.3-.7-.2-.1-.6,0-.7.2h0s-.7-.2-.7-.2l-.4,1h.2c0,0,4.5,1.9,4.5,1.9Z"/>
    <path class="st1" d="M37.1,30l.9.3c0-.2,0-.5-.2-.7l-.7-.4v.5c0,0,0,.2,0,.2Z"/>
    <path class="st1" d="M43,40.9c-.2,0-.3,0-.3-.2,0-.1,0-.3.2-.3.2,0,.3.1.3.3l-.2.2ZM43.3,39.9h0s0,0,0,0h0c0,0,0,0,0,0-.3.2-.6.3-1,.3v.3s0,0,0,0c0,.3.2.6.3.7h.4c0,.1.3,0,.3,0,.2-.2.3-.5.2-.8,0-.2,0-.5-.1-.6"/>
    <path class="st1" d="M39.6,36.4c-.4-.8-1.1-1.3-2.2-1.4-.5-.1-1-.3-1.4-.8,0,.2-.2.4-.3.6.4.4,1,.7,1.7.8.5.2,1,.3,1.4.9.3.4.6.6,1,.6v-.4c-.1,0-.2-.3-.2-.3Z"/>
    <path class="st1" d="M36.2,34c0,.1.4.4.7.4.4,0,.9,0,1.4-.2-.2-.2-.4-.4-.6-.6-.3.3-.7.3-1.3.4h0Z"/>
    <path class="st1" d="M40,29.7c-.4,0-.6-.1-.8-.5-.2-.1-.3-.3-.4-.4h-.3c0,0-.2.2-.2.2v.2c.5.4,1,.9.6,1.6h.3c0,.1,0,.1,0,.1h0s.2.1.2.1c0-.4.2-.7.5-.7h.1c.3,0,.6.2.8.7h.3c.1,0,.2,0,.2-.3-.1-.5-.6-.8-1.3-.9"/>
    <path class="st1" d="M39.5,32.3c0,.2-.2.4-.3.6,0,.2-.1.3-.3.3h-.2c-.3-.2-.6-.4-.9-.5-.3-.2-.5-.3-.7-.4-.2,0-.2-.1-.2-.3h0c.1-.3,0-.5-.2-.7h-.2c0-.1,0-.2,0-.2h0s.2,0,.2,0c.3.2.4.5.3.8v.2c.1,0,.1,0,.1,0,.2.1.5.3.7.4.3.2.6.4.9.5.2,0,.3,0,.4-.3.1-.2.2-.4.3-.6h0s0,0,0,0ZM38,31.2h0s0,0,0,0l.5.4h0c0,0,0,0,0,0l-.5-.3v.4c0,0,.9.7.9.7h0c0,0,0,0,0,0h0s-1.1-.7-1.1-.7h0c0,0,.1-.5.1-.5ZM39.9,37.2h0c0,.2.1.5.2.7.4-.8.5-1.6.1-2.4,0-.2-.2-.4-.3-.6h0c0,0,1.1-.5,1.1-.5h0c.5,1.1,1.3,1.9,2.4,2.3-.6-2.7-2-4.5-4.1-5.7h0s0,0,0,0l-2.7-1.1v2.7c.4.3.8.6,1.2.9h0s0,0,0,0h0c.2.2.4.4.6.6.7.8,1.2,1.7,1.6,2.7l.2.5h0c0,0,0,0,0,0Z"/>
    <path class="st1" d="M43.5,36.8h0s0,0,0,0h0s-.2-.1-.2-.1c-.3-.1-.6-.3-.9-.5-.6-.4-1.1-1-1.4-1.7l-.8.4c.7,1.2.8,2.1,0,3.3.4,1.1,1,1.9,1.9,2,.6.1,1.2-.2,1.6-.7.5-.7.5-1.7,0-2.7"/>
    <polygon class="st1" points="24.4 26.8 23.5 26.4 23.4 26.4 23.2 26.8 24.2 27.2 24.4 26.8"/>
    <polygon class="st1" points="28 27.7 23.5 25.9 23.4 26.3 23.5 26.3 24.5 26.7 24.5 26.7 24.5 26.8 24.3 27.2 25.4 27.7 25.6 27.2 27.2 27.8 27.2 27.9 27.2 27.9 27 28.3 28 28.8 28 27.7"/>
    <polygon class="st1" points="27.1 27.9 25.6 27.3 25.5 27.7 26.9 28.3 27.1 27.9"/>
    <path class="st1" d="M27.3,29.8v-.5c0,0-.7.4-.7.4-.2.1-.2.4-.2.6l.9-.3v-.2Z"/>
    <path class="st1" d="M24.2,38c-.5-.9-.6-1.7-.1-2.6,0-.2.2-.3.3-.5l-.8-.4c-.5,1.1-1.4,1.9-2.5,2.2h0s0,0,0,0h0s0,0,0,0c-.5,1-.6,2,0,2.7.4.5,1,.8,1.6.7.8-.1,1.5-.9,1.9-2h0c0,0,0-.2,0-.2Z"/>
    <path class="st1" d="M24.9,32.2h0c0,.3.2.5.3.6,0,.2.1.3.4.3.3-.2.6-.4.9-.5.2-.1.5-.3.7-.4h0s.1,0,.1,0h0c-.1-.5,0-.7.3-.9l.3-.2h0s0,0,0,0l-.3.2c-.3.1-.4.4-.3.7v.2s-.2.1-.2.1c-.2,0-.4.2-.6.4-.3.2-.6.4-.9.5h-.2c-.2,0-.3-.1-.3-.3-.1-.2-.2-.4-.3-.6h0ZM25.4,32.3l1-.7v-.4c-.1,0-.6.3-.6.3h0s0,0,0,0l.5-.4h0s0,0,0,0v.5c.1,0,.1,0,.1,0l-1.1.7h0s0,0,0,0h0ZM24.5,36.9c.4-1.2,1-2.2,1.8-3.1l.4-.4h0s0,0,0,0h0c.4-.4.9-.7,1.4-1v-2.6c-.1,0-3,1.1-3,1.1h0s0,0,0,0c-2.2,1.2-3.5,2.9-4.2,5.7.2,0,.4-.2.6-.3l.3-.2h0s0,0,0,0c.6-.4,1-1,1.4-1.7h0s1.1.4,1.1.4h0c-.4.6-.6,1.2-.6,1.7h0s0,.2,0,.2h0c0,.4.1.8.4,1.2,0-.2,0-.5.1-.7h0s0,0,0,0v-.2Z"/>
    <path class="st1" d="M21.2,40.7c0-.2.1-.3.3-.3.2,0,.3.1.2.3,0,.2-.1.3-.3.2-.2,0-.3-.1-.2-.2M21,39.9c0,.2-.1.5-.1.6,0,.3,0,.6.2.8h.3c0,.1.3,0,.3,0,.2-.1.3-.4.4-.7v-.3c-.4,0-.8-.2-1.1-.4h0Z"/>
    <path class="st1" d="M23.3,31h.3c.2-.6.6-.9.9-.8.3,0,.4.3.5.7h.2c0-.1,0-.1,0-.1h0s.3-.1.3-.1c-.3-.7.1-1.2.6-1.6v-.2c0,0-.1-.3-.1-.3h-.3c-.1.3-.3.4-.4.5-.2.4-.5.5-.9.5-.7,0-1.1.4-1.3.9,0,.2,0,.4.2.4"/>
    <path class="st1" d="M28.8,34.7c-.1-.2-.2-.4-.3-.7-.3.6-.9.8-1.5,1-1,.2-1.8.7-2.2,1.5l-.2.5v.2c.3,0,.6-.2,1-.6.4-.6.8-.8,1.3-.9.7,0,1.4-.4,1.8-.9"/>
    <path class="st1" d="M26.8,33.5c-.2.2-.4.4-.6.6.4.1.9.3,1.4.2.3,0,.7-.3.7-.4h0c-.6-.1-1-.2-1.3-.4"/>
    <path class="st1" d="M33,44.1l-.6-.2-.7-.2c-.1,0-.3,0-.4.2,0,.2,0,.3.2.4h1.8c0-.1,0-.2-.3-.3"/>
    <path class="st1" d="M33,42.6h-.1s0,0,0,0l-1.1-.3c-.2,0-.3,0-.4.2h0s0,.2,0,.2h.2c0,.1,1.3.5,1.3.5.2,0,.3,0,.4-.2,0-.2,0-.4-.3-.4"/>
    <path class="st1" d="M33,43.4h-.2s0,0,0,0h0s-1.1-.3-1.1-.3h-.2s-.2.2-.2.2h0s0,.2,0,.2h.2c0,.1.1.2.1.2h0s.7.2.7.2h.4c0,.1.3,0,.3,0v-.2c.2-.2,0-.3-.1-.4"/>
    <path class="st1" d="M31.6,42.1l1.3.4c.2,0,.3,0,.4-.2h0c0-.2,0-.4-.3-.4h-.1s0,0,0,0h-.2c0,0-.9-.3-.9-.3-.2,0-.4,0-.4.2,0,.2,0,.3.3.4"/>
    <path class="st1" d="M33,40.4h0s-1.6,0-1.6,0c0,.1,0,.2.3.2h0s0,0,0,0h0l1.2.3c.1,0,.3,0,.3-.2h0c0-.2,0-.3-.3-.3"/>
    <path class="st1" d="M33,41.1h0s0,0,0,0l-1.2-.3c-.1,0-.3,0-.4.2h0s0,.3,0,.3h.2c0,.1,1.3.5,1.3.5.2,0,.3,0,.4-.2h0c0-.2,0-.4-.3-.4"/>
    <polygon class="st1" points="32.5 45.8 32.1 45.8 32 45.9 32.1 46.1 32.5 46.1 32.6 45.9 32.5 45.8"/>
    <polygon class="st1" points="33.4 44.5 31.2 44.5 31 44.7 31.2 44.8 33.2 44.8 33.4 44.8 33.6 44.7 33.4 44.5"/>
    <polygon class="st1" points="32.9 45.3 31.7 45.3 31.5 45.5 31.7 45.7 32.5 45.7 32.9 45.7 33.1 45.5 32.9 45.3"/>
    <polygon class="st1" points="33.2 44.9 31.4 44.9 31.3 45.1 31.4 45.2 32.9 45.2 33.2 45.2 33.3 45.1 33.2 44.9"/>
    <path class="st1" d="M27.8,23.4c.3,0,.6.2.6.6l-.2.4c.2.3.4.7.7,1,.4-.2.9-.4,1.3-.6l-1.3-2.5-.4.2h0s0,0,0,0l-.4-.7h-.3c0,.1,0,.2,0,.2l.2.4h0s-.2.1-.2.1h-.1c0,0,0,0,0,0l-.2-.4c0,0-.1,0-.3.2.2.3.4.7.7,1h.2Z"/>
    <path class="st1" d="M31.3,21.9l.2.6h-.3c0,0-.2-.5-.2-.5h.3ZM31.5,21.1h0v-.4s0,0,0,0v.4ZM32,20.7v.4h0v-.4h0ZM32.2,19.2h0s0,0,0,0v1.4h0s0,0,0,0h0v-1.4ZM32.7,21h0v-.4h0v.4ZM33.1,20.7v.4s0,0,0,0h0s0-.4,0-.4h0ZM33.5,22l-.2.6h-.3c0,0,.2-.7.2-.7h.3ZM32.4,22.5h-.3v-.6h.3v.6ZM30.3,21.8l1,2.7h.4s-.3-1.1-.3-1.1l.5-.4h.6l.5.4-.3,1h.4s1.1-2.9,1.1-2.9h0s.3-.7.3-.7h-.4c0,0,0,.4,0,.4h0s-.3,0-.3,0h-.1s0,0,0,0v-.4c0,0-.2,0-.3,0v-1.2l-.9-1-.9,1v1.2h-.2s-.2,0-.2,0v.5c0,0,0,0,0,0h-.4c0,0,0,0,0,0v-.5c-.3,0-.4,0-.6.1l.3.9h0Z"/>
    <path class="st1" d="M35.6,25.4c-.9-.5-1.9-.8-2.9-.8h0s-.9,0-.9,0h0c-1,0-2,.3-2.9.8l.2.2c1-.6,2.1-.8,3.2-.8s2.1.3,3.2.8v-.2Z"/>
    <path class="st1" d="M29.9,22.3l.2.6h-.3c0,0-.2-.5-.2-.5h.3ZM29,22.2l1.3,2.5c.3,0,.6-.1.9-.2l-1-2.7c-.2,0-.4.1-.7.2h0s-.4-.8-.4-.8h-.2c0,0-.3.2-.3.2l.4.8h0Z"/>
    <path class="st1" d="M34.3,24.7c.5.1.9.3,1.4.6l.6-1v-.3c-.1-.3.1-.6.4-.6h.1s.7-1.1.7-1.1l-.3-.2-.2.3h0s-.1-.1-.1-.1h-.2c0-.1,0-.1,0-.1l.2-.3-.3-.2-.4.8h0s-.1,0-.1,0l-.3-.2-1.4,2.5Z"/>
    <path class="st1" d="M34.6,22.3h.3c0,0-.2.7-.2.7h-.2c0,0,.2-.7.2-.7ZM33.3,24.5c.3,0,.6.1.9.2l1.5-2.7h0s.3-.7.3-.7h0s-.4-.2-.4-.2l-.4.9h0c-.1,0-.3-.1-.4-.2h-.3c0,0-1,2.7-1,2.7Z"/>
    <path class="st1" d="M29.6,32.7c.2,0,.3-.1.3-.3s-.1-.3-.3-.3h-1.2v.5h1.2Z"/>
    <path class="st1" d="M36.2,31.5h-1.3l-.3.3c0,.2.1.3.3.3h1.3v-.6Z"/>
    <path class="st1" d="M30.6,36.2v-10.3h-2.5l.2,3.4h1.4c.2,0,.4.2.4.4h0s-.2.3-.2.3c.1,0,.2.2.2.3l-.2.3.2.4c0,.1,0,.3-.2.3l.2.3c0,.2,0,.3-.2.4.1,0,.2.2.2.3s-.2.4-.4.4h-1.2,0c.2,1.7,1,2.9,2.2,3.4"/>
    <path class="st1" d="M34.7,32.5l.3.3h1.2v-.5s-1.2,0-1.2,0c-.1,0-.3.1-.3.3"/>
    <path class="st1" d="M29.6,31.4c.2,0,.3-.1.3-.3s-.1-.3-.3-.3h-1.3v.6h1.3Z"/>
    <path class="st1" d="M29.6,32.1c.2,0,.3-.1.3-.3s-.1-.3-.3-.3h-1.2v.6h1.2Z"/>
    <path class="st1" d="M29.6,30.7c.2,0,.3-.1.3-.3s-.1-.3-.3-.3h-1.3v.5h1.3Z"/>
    <path class="st1" d="M29.8,29.7h0c0-.1-.1-.3-.3-.3h-1.3v.5h1.3c.2,0,.3-.1.3-.3"/>
    <path class="st1" d="M34.9,31.4h1.3v-.6s-1.3,0-1.3,0c-.1,0-.3.1-.3.3s.1.3.3.3"/>
    <path class="st1" d="M31.8,28.4c0-.3.2-.6.5-.6s.5.2.5.6v.7h-1v-.7ZM31.6,27.6c0,.2-.1.3-.3.3v1.3h1.9v-1.3c-.2,0-.3-.2-.3-.3s.1-.3.3-.4v-.7h-.3v.5h-.5v-.5h-.4v.5h-.5v-.5h-.2v.7c.1,0,.3.2.3.4"/>
    <path class="st1" d="M31.8,31.8c0-.3.2-.6.5-.6s.5.3.5.6v.7h-1v-.7ZM31.6,30.9c0,.2-.1.3-.3.3v1.4h1.9v-1.4c-.2,0-.3-.2-.3-.3s.1-.3.3-.3v-.7h-.3v.5h-.5v-.5h-.4v.5h-.5v-.5h-.2v.7c.1,0,.3.2.3.3"/>
    <path class="st1" d="M32.8,35.1v.7h-1v-.7c0-.3.2-.6.5-.6s.5.2.5.6M32.5,33.3h-.4v.5h-.5v-.5h-.3v.6c.2,0,.3.2.3.4v.2c-.1,0-.3,0-.3,0v1.4h1.9v-1.4c-.2,0-.3-.2-.3-.3,0-.2.1-.3.3-.4v-.6h-.2v.5h-.5v-.5Z"/>
    <path class="st1" d="M33.4,34h0c-.1,0-.2,0-.2.3l.2.2h0v1.6h-2.1v-1.6h0s.1,0,.1,0h0c0-.3-.1-.4-.2-.4h0v-.9h.5v.5h.2v-.5h.6v.5h.3v-.5h.5v.9ZM31.2,29.8h.5v.5h.3v-.5h.6v.5h.3v-.5h.5v.9h0l-.2.2.2.2h0v1.6h-2.1v-1.6h0l.2-.2-.2-.2h0v-.9ZM31.2,26.5h.5v.5h.3v-.5h.6v.5h.3v-.5h.5v.9h0l-.2.2.2.2h0v1.6h-2.1v-1.6h0l.2-.2-.2-.2h0v-.9ZM33.8,25.9h-.6v-.9c-.3,0-.6,0-.9,0h0v.9h0s0,0,0,0v-.9c-.3,0-.6,0-.9,0v.9h-.7v10.3c.4.1,1,.2,1.6.2s1.1,0,1.5-.2v-10.3Z"/>
    <path class="st1" d="M36.5,25.9h-2.6v10.3c1.3-.5,2-1.6,2.2-3.3h0c0,0-1.3,0-1.3,0-.2,0-.4-.2-.4-.4s0-.3.2-.3c-.1,0-.2-.2-.2-.4l.2-.3c-.1,0-.2-.2-.2-.3l.2-.4c-.1,0-.2-.2-.2-.3s0-.3.2-.3l-.2-.3h0c0-.2.2-.4.4-.4h1.4l.2-3.4Z"/>
    <path class="st1" d="M36.3,30.7v-.5s-1.3,0-1.3,0c-.1,0-.3.1-.3.3s.1.3.3.3h1.3Z"/>
    <polygon class="st1" points="34.9 29.5 34.7 29.7 34.7 29.7 34.9 30 36.3 30 36.3 29.5 34.9 29.5"/>
    <path class="st1" d="M32.3,40.1c-.6,0-1-.5-1-1s.5-1,1-1,1,.5,1,1-.5,1-1,1M33.5,37.9h-2.3v2.3h2.3v-2.3Z"/>
    <path class="st1" d="M32.6,39.1l.2.6-.5-.4-.5.4.2-.6-.5-.4h.6l.2-.6.2.6h.7l-.5.4ZM32.3,38.1c-.5,0-.9.4-.9.9s.4.9.9.9.9-.4.9-.9-.4-.9-.9-.9"/>
    <polygon class="st1" points="31 38.2 27.8 38 27.8 39.9 31 39.7 31 38.2"/>
    <polygon class="st1" points="33.6 39.7 36.7 39.9 36.7 38 33.6 38.2 33.6 39.7"/>
    <path class="st1" d="M45.9,21.9l-.8-.2-.4.7v-.8c-.1,0-.9-.2-.9-.2l.8-.3v-.8c0,0,.5.6.5.6l.8-.3-.4.7.6.6ZM46.9,24.3v-.8c.1,0,.5.7.5.7h.8c0-.1-.6.5-.6.5l.4.7-.7-.3-.6.6v-.8c.1,0-.6-.4-.6-.4h.8ZM48.7,27.3l.2.8h.8c0,0-.7.5-.7.5l.2.8-.6-.5-.7.4.3-.8-.6-.5h.8c0,0,.3-.7.3-.7ZM49.4,32.7v.8l-.5-.6-.8.2.5-.7-.5-.7.8.3.5-.7v.8s.8.3.8.3l-.8.2ZM48.8,36.8l-.2.8-.3-.7h-.8s.6-.5.6-.5l-.3-.7.7.4.6-.6-.2.8.7.5h-.8ZM47.3,40.6l-.4.7v-.8c-.1,0-.9-.2-.9-.2l.7-.4v-.8c-.1,0,.5.6.5.6l.7-.4-.4.7.5.6h-.8ZM45.6,44.3l-.7-.3-.6.6v-.8c0,0-.7-.4-.7-.4l.8-.2v-.8c0,0,.5.7.5.7l.8-.2-.5.6.4.7ZM32.2,47.5c-8.3,0-15.1-6.8-15.1-15.1s6.8-15.1,15.1-15.1,15.1,6.8,15.1,15.1-6.8,15.1-15.1,15.1M42.4,47.2l-.6-.5-.7.5.3-.8-.6-.5h.8l.3-.8.2.8h.8s-.7.5-.7.5l.2.8ZM38.6,48.4v.8l-.5-.6-.8.3.4-.7-.5-.7.8.2.4-.7v.8s.8.2.8.2l-.8.3ZM34.6,49.4l-.2.8-.3-.7h-.8c0,0,.6-.5.6-.5l-.3-.8.7.4.6-.5-.2.8.7.4h-.8ZM30.2,49.5l-.4.7v-.8c-.1,0-1-.1-1-.1l.7-.4v-.8c-.1,0,.5.6.5.6l.7-.4-.4.7.6.6h-.8ZM27,48.8l-.8-.3-.5.6v-.8s-.7-.3-.7-.3l.8-.2v-.8c0,0,.6.7.6.7l.8-.2-.5.6.5.7ZM23.2,47.1l-.7-.5-.7.5.2-.8-.7-.5h.8s.3-.8.3-.8l.3.8h.8s-.7.5-.7.5l.3.8ZM20,44.5l-.6-.6-.8.3.4-.7-.5-.6.8.2.4-.7v.8c.1,0,.9.2.9.2l-.8.3v.8ZM17.6,40.4v.8c-.1,0-.5-.7-.5-.7h-.8c0,.1.6-.5.6-.5l-.4-.7.7.3.6-.5v.8c0,0,.6.3.6.3h-.8ZM15.7,37.5l-.2-.8h-.8c0,0,.7-.5.7-.5l-.2-.8.6.5.7-.4-.3.8.6.5h-.8c0,0-.3.7-.3.7ZM15,32v-.8s.5.6.5.6l.8-.2-.5.7.5.6-.8-.3-.5.7v-.8s-.8-.3-.8-.3l.8-.2ZM15.6,27.9l.2-.8.3.7h.8s-.6.5-.6.5l.3.7-.7-.4-.6.6.2-.8-.7-.5h.8ZM17.1,24.1l.4-.7v.8c.1,0,.9.2.9.2l-.8.4v.8c.1,0-.4-.6-.4-.6l-.7.4.4-.7-.5-.6h.8ZM18.8,20.4l.7.3.6-.6v.8c0,0,.7.4.7.4l-.8.2v.8c0,0-.5-.7-.5-.7l-.8.2.5-.6-.4-.7ZM22,17.5l.6.5.7-.5-.2.8.6.5h-.8l-.3.8-.2-.8h-.8s.7-.5.7-.5l-.2-.8ZM25.8,15.5l.5.6.8-.3-.4.7.5.7-.8-.2-.4.7v-.8s-.8-.2-.8-.2l.8-.3v-.8ZM29.8,15.3l.2-.8.3.7h.8c0,0-.6.5-.6.5l.3.8-.7-.4-.6.5.2-.8-.7-.4h.8ZM34.2,15.2l.4-.7v.8c.1,0,1,.1,1,.1l-.7.4v.8c.1,0-.5-.6-.5-.6l-.7.4.3-.7-.6-.6h.8ZM37.4,15.9l.8.3.5-.6v.8s.7.3.7.3l-.8.2v.8c0,0-.6-.7-.6-.7l-.8.2.5-.6-.5-.7ZM41.2,17.6l.7.5.7-.5-.2.8.7.5h-.8s-.3.8-.3.8l-.3-.8h-.8s.7-.5.7-.5l-.3-.8ZM32.2,13.7c-10.3,0-18.7,8.4-18.7,18.7s8.4,18.7,18.7,18.7,18.7-8.4,18.7-18.7-8.4-18.7-18.7-18.7"/>
  </g>
</svg>